# This file uses centimeters as units for non-parametric coordinates.

mtllib trackTest.mtl
g default
v -10.000000 -0.500000 10.000000
v 10.000000 -0.500000 10.000000
v -10.000000 0.500000 10.000000
v 10.000000 0.500000 10.000000
v -10.000000 0.500000 -10.000000
v 10.000000 0.500000 -10.000000
v -10.000000 -0.500000 -10.000000
v 10.000000 -0.500000 -10.000000
v -10.000000 0.500000 9.000000
v 10.000000 0.500000 9.000000
v 10.000000 -0.500000 9.000000
v -10.000000 -0.500000 9.000000
v -10.000000 -0.500000 -9.000000
v 10.000000 -0.500000 -9.000000
v 10.000000 0.500000 -9.000000
v -10.000000 0.500000 -9.000000
v -10.000000 2.500000 10.000000
v 10.000000 2.500000 10.000000
v 10.000000 2.500000 9.000000
v -10.000000 2.500000 9.000000
v 10.000000 2.500000 -9.000000
v -10.000000 2.500000 -9.000000
v 10.000000 2.500000 -10.000000
v -10.000000 2.500000 -10.000000
v 0.000000 -0.500000 10.000000
v 0.000000 -0.500000 9.000000
v 0.000000 -0.500000 -9.000000
v 0.000000 -0.500000 -10.000000
v 0.000000 0.500000 -10.000000
v 0.000000 2.500000 -10.000000
v 0.000000 2.500000 -9.000000
v 0.000000 0.500000 -9.000000
v 0.000000 0.500000 9.000000
v 0.000000 2.500000 9.000000
v 0.000000 2.500000 10.000000
v 0.000000 0.500000 10.000000
vt 0.432999 0.432637
vt 0.951933 0.377176
vt 0.391161 0.497004
vt 0.558701 0.500411
vt 0.432999 0.432637
vt 0.432999 0.497004
vt 0.391162 0.432637
vt 0.391162 0.497004
vt 0.432999 0.625738
vt 0.391161 0.625738
vt 0.432999 0.625738
vt 0.391162 0.625738
vt 0.558702 0.500411
vt 0.558702 0.377176
vt 0.951933 0.377176
vt 0.123437 0.500523
vt 0.123437 0.436156
vt 0.123437 0.500523
vt 0.165275 0.436156
vt 0.165275 0.500523
vt 0.165275 0.629257
vt 0.123437 0.629257
vt 0.165275 0.629257
vt 0.123437 0.629257
vt 0.951577 0.451286
vt 0.951577 0.669747
vt 0.558345 0.669747
vt 0.558345 0.451286
vt 0.951577 0.888209
vt 0.558345 0.888209
vt 0.757815 0.277467
vt 0.757815 0.098845
vt 0.857050 0.098845
vt 0.857050 0.277467
vt 0.658581 0.277467
vt 0.658581 0.098845
vt 0.757815 0.088921
vt 0.857050 0.088921
vt 0.757815 0.287390
vt 0.857050 0.287390
vt 0.658581 0.088921
vt 0.658581 0.287390
vt 0.169382 0.386857
vt 0.119329 0.386857
vt 0.388845 0.397266
vt 0.435315 0.397266
vt 0.119329 0.678556
vt 0.169382 0.678556
vt 0.169382 0.386857
vt 0.119329 0.386857
vt 0.388846 0.397266
vt 0.435315 0.397266
vt 0.119329 0.678556
vt 0.169382 0.678556
vt 0.193973 0.433472
vt 0.362463 0.231483
vt 0.461697 0.231483
vt 0.461697 0.429952
vt 0.094738 0.235002
vt 0.094738 0.433472
vt 0.193973 0.830411
vt 0.461697 0.826891
vt 0.094738 0.830411
vt 0.193973 0.830411
vt 0.193973 0.631941
vt 0.461697 0.628421
vt 0.461697 0.826892
vt 0.094738 0.631941
vt 0.094738 0.830411
vt 0.193973 0.235002
vt 0.461697 0.231483
vt 0.094738 0.235002
vt 0.461698 0.727656
vt 0.193973 0.731176
vt 0.193973 0.334237
vt 0.461698 0.330718
vt 0.094738 0.731176
vt 0.094738 0.334237
vt 0.193973 0.731176
vt 0.193973 0.334237
vt 0.461698 0.330718
vt 0.461698 0.727657
vt 0.094738 0.334237
vt 0.094738 0.731176
vt 0.362463 0.429952
vt 0.193973 0.235002
vt 0.388845 0.661109
vt 0.362463 0.826891
vt 0.362463 0.330718
vt 0.435315 0.661109
vt 0.362463 0.727656
vt 0.362463 0.330718
vt 0.388846 0.661109
vt 0.362463 0.727657
vt 0.362463 0.231483
vt 0.435315 0.661109
vt 0.362463 0.628421
vt 0.362463 0.826892
vt 0.165275 0.500523
vt 0.165275 0.436156
vt 0.391161 0.432637
vt 0.951933 0.500411
vt 0.123437 0.436156
vt 0.951933 0.500411
vt 0.432999 0.497004
vt 0.558701 0.377176
vn 0.000000 0.000000 1.000000
vn 0.000000 0.000000 1.000000
vn 0.000000 0.000000 1.000000
vn 0.000000 0.000000 1.000000
vn 0.000000 1.000000 0.000000
vn 0.000000 1.000000 0.000000
vn 0.000000 1.000000 0.000000
vn 0.000000 1.000000 0.000000
vn 0.000000 0.000000 -1.000000
vn 0.000000 0.000000 -1.000000
vn 0.000000 0.000000 -1.000000
vn 0.000000 0.000000 -1.000000
vn 0.000000 -1.000000 0.000000
vn 0.000000 -1.000000 0.000000
vn 0.000000 -1.000000 0.000000
vn 0.000000 -1.000000 0.000000
vn 1.000000 0.000000 0.000000
vn 1.000000 0.000000 0.000000
vn 1.000000 0.000000 0.000000
vn 1.000000 0.000000 0.000000
vn -1.000000 0.000000 0.000000
vn -1.000000 0.000000 0.000000
vn -1.000000 0.000000 0.000000
vn -1.000000 0.000000 0.000000
vn 0.000000 1.000000 0.000000
vn 0.000000 1.000000 0.000000
vn 0.000000 1.000000 0.000000
vn 0.000000 1.000000 0.000000
vn 1.000000 0.000000 0.000000
vn 1.000000 0.000000 0.000000
vn 0.000000 -1.000000 0.000000
vn 0.000000 -1.000000 0.000000
vn -1.000000 0.000000 0.000000
vn -1.000000 0.000000 0.000000
vn 0.000000 -1.000000 0.000000
vn 0.000000 -1.000000 0.000000
vn 1.000000 0.000000 0.000000
vn 1.000000 0.000000 0.000000
vn 0.000000 1.000000 0.000000
vn 0.000000 1.000000 0.000000
vn 0.000000 1.000000 0.000000
vn 0.000000 1.000000 0.000000
vn -1.000000 0.000000 0.000000
vn -1.000000 0.000000 0.000000
vn 0.000000 0.000000 1.000000
vn 0.000000 0.000000 1.000000
vn 1.000000 0.000000 0.000000
vn 1.000000 0.000000 0.000000
vn 0.000000 0.000000 -1.000000
vn 0.000000 0.000000 -1.000000
vn 0.000000 0.000000 -1.000000
vn 0.000000 0.000000 -1.000000
vn -1.000000 0.000000 0.000000
vn -1.000000 0.000000 0.000000
vn 0.000000 0.000000 1.000000
vn 0.000000 0.000000 1.000000
vn 0.000000 0.000000 1.000000
vn 0.000000 0.000000 1.000000
vn 1.000000 0.000000 0.000000
vn 1.000000 0.000000 0.000000
vn 0.000000 0.000000 -1.000000
vn 0.000000 0.000000 -1.000000
vn -1.000000 0.000000 0.000000
vn -1.000000 0.000000 0.000000
vn 0.000000 -1.000000 0.000000
vn 0.000000 -1.000000 0.000000
vn 0.000000 -1.000000 0.000000
vn 0.000000 -1.000000 0.000000
vn 0.000000 0.000000 -1.000000
vn 0.000000 0.000000 -1.000000
vn 0.000000 0.000000 -1.000000
vn 0.000000 1.000000 0.000000
vn 0.000000 1.000000 0.000000
vn 0.000000 0.000000 1.000000
vn 0.000000 0.000000 1.000000
vn 0.000000 1.000000 0.000000
vn 0.000000 1.000000 0.000000
vn 0.000000 0.000000 -1.000000
vn 0.000000 0.000000 -1.000000
vn 0.000000 1.000000 0.000000
vn 0.000000 1.000000 0.000000
vn 0.000000 0.000000 1.000000
vn 0.000000 0.000000 1.000000
vn 0.000000 0.000000 1.000000
s 1
g pCube1
usemtl initialShadingGroup
f 36/85/1 25/56/2 2/57/3 4/58/4
s 2
f 15/25/5 32/26/6 33/27/7 10/28/8
s 3
f 28/98/9 29/97/10 6/66/11 8/67/12
s 4
f 26/31/13 27/32/14 14/33/15 11/34/16
s 5
f 11/106/17 14/2/18 15/102/19 10/4/20
s 6
f 16/13/21 13/14/22 12/15/23 9/104/24
s 7
f 34/90/25 35/87/26 18/45/27 19/46/28
s 5
f 2/7/29 11/1/17 10/105/20 4/8/30
s 4
f 25/39/31 26/31/13 11/34/16 2/40/32
s 6
f 9/16/24 12/103/23 1/19/33 3/20/34
s 4
f 27/32/14 28/37/35 8/38/36 14/33/15
s 5
f 15/3/19 14/101/18 8/5/37 6/6/38
s 8
f 30/96/39 31/93/40 21/51/41 23/52/42
s 6
f 7/17/43 13/100/22 16/99/21 5/18/44
s 1
f 35/88/45 36/85/1 4/58/4 18/62/46
s 5
f 4/8/30 10/105/20 19/11/47 18/12/48
s 9
f 10/73/49 33/91/50 34/89/51 19/76/52
s 6
f 9/16/24 3/20/34 17/23/53 20/24/54
s 10
f 31/94/55 32/92/56 15/81/57 21/82/58
s 5
f 15/3/19 6/6/38 23/9/59 21/10/60
s 3
f 6/66/11 29/97/10 30/95/61 23/71/62
s 6
f 5/18/44 16/99/21 22/21/63 24/22/64
s 4
f 12/35/65 26/31/13 25/39/31 1/42/66
f 12/35/65 13/36/67 27/32/14 26/31/13
f 7/41/68 28/37/35 27/32/14 13/36/67
s 3
f 5/68/69 29/65/10 28/64/9 7/69/70
f 30/70/61 29/65/10 5/68/69 24/72/71
s 8
f 22/53/72 31/50/40 30/49/39 24/54/73
s 10
f 16/83/74 32/80/56 31/79/55 22/84/75
s 2
f 33/27/7 32/26/6 16/29/76 9/30/77
s 9
f 34/75/51 33/74/50 9/77/78 20/78/79
s 7
f 17/47/80 35/44/26 34/43/25 20/48/81
s 1
f 3/60/82 36/55/1 35/61/45 17/63/83
f 1/59/84 25/86/2 36/55/1 3/60/82
