# This file uses centimeters as units for non-parametric coordinates.

mtllib SteeringWheel.mtl
g default
v -0.510666 3.201285 -0.550680
v -0.214832 3.354143 -0.550680
v 0.222165 3.354143 -0.550680
v 0.517170 3.201989 -0.550680
v -0.510666 3.201285 -0.609596
v -0.214832 3.354143 -0.609596
v 0.222165 3.354143 -0.609596
v 0.517170 3.201989 -0.609596
v -0.509836 2.195624 -0.609596
v -0.214832 2.043152 -0.609596
v 0.222165 2.043152 -0.609596
v 0.517170 2.195624 -0.609596
v -0.509836 2.195624 -0.550680
v -0.214832 2.043152 -0.550680
v 0.222165 2.043152 -0.550680
v 0.517170 2.195624 -0.550680
v 0.659162 2.480149 -0.609596
v 0.659162 2.480149 -0.550680
v 0.659162 2.917145 -0.609596
v 0.659162 2.917145 -0.550680
v -0.651829 2.480149 -0.609596
v -0.651829 2.480149 -0.550680
v -0.651829 2.917145 -0.609596
v -0.651828 2.917145 -0.550680
v -0.328125 2.374783 -0.491763
v -0.483225 2.221861 -0.511326
v -0.155847 2.285742 -0.491763
v -0.206194 2.078678 -0.511326
v 0.163180 2.285742 -0.491763
v 0.213527 2.078678 -0.511326
v 0.335458 2.374783 -0.491763
v 0.490559 2.221861 -0.511326
v -0.328747 3.022223 -0.491763
v -0.484025 3.175062 -0.511326
v -0.155862 3.111552 -0.491763
v -0.206196 3.318615 -0.511326
v 0.163290 3.111552 -0.491763
v 0.213543 3.318615 -0.511326
v 0.335456 3.022755 -0.491763
v 0.490558 3.175741 -0.511326
v -0.484025 3.175062 -0.648949
v -0.328747 3.022223 -0.668513
v -0.206196 3.318616 -0.648949
v -0.155862 3.111552 -0.668513
v 0.213543 3.318615 -0.648949
v 0.163290 3.111552 -0.668513
v 0.335456 3.022755 -0.668513
v 0.490558 3.175741 -0.648949
v -0.328125 2.374783 -0.668513
v -0.483225 2.221861 -0.648949
v -0.155847 2.285742 -0.668513
v -0.206194 2.078678 -0.648949
v 0.163180 2.285742 -0.668513
v 0.213527 2.078678 -0.648949
v 0.335458 2.374783 -0.668513
v 0.490559 2.221861 -0.648949
v -0.409238 2.537319 -0.491763
v -0.616302 2.488521 -0.511326
v 0.416572 2.537319 -0.491763
v 0.623635 2.488521 -0.511326
v -0.409239 2.860205 -0.491763
v -0.616302 2.908807 -0.511326
v 0.416572 2.860032 -0.491763
v 0.623636 2.908782 -0.511326
v -0.409238 2.860205 -0.668513
v -0.616302 2.908807 -0.648949
v 0.416572 2.860032 -0.668513
v 0.623636 2.908782 -0.648949
v -0.409238 2.537319 -0.668513
v -0.616302 2.488521 -0.648949
v 0.416572 2.537319 -0.668513
v 0.623635 2.488521 -0.648949
v 0.003667 2.605504 -0.518123
v 0.096810 2.698647 -0.518123
v -0.089477 2.698647 -0.518123
v -0.089477 2.698647 -0.643226
v 0.003667 2.605504 -0.643226
v 0.096810 2.698647 -0.643226
vt 0.418861 0.218708
vt 0.396626 0.218708
vt 0.381774 0.219791
vt 0.381774 0.185316
vt 0.396626 0.181924
vt 0.418861 0.181924
vt 0.433713 0.185316
vt 0.433713 0.219791
vt 0.418861 0.275205
vt 0.396626 0.275205
vt 0.381774 0.274124
vt 0.433713 0.274124
vt 0.418861 0.312031
vt 0.396626 0.312031
vt 0.381774 0.308637
vt 0.433713 0.308637
vt 0.393877 0.073680
vt 0.379139 0.074754
vt 0.379139 0.040547
vt 0.393877 0.037181
vt 0.415939 0.037181
vt 0.430676 0.040547
vt 0.430676 0.074754
vt 0.415939 0.073680
vt 0.393877 0.129739
vt 0.379139 0.128669
vt 0.430676 0.128669
vt 0.415939 0.129739
vt 0.393877 0.166188
vt 0.379139 0.162824
vt 0.430676 0.162824
vt 0.415939 0.166188
vt 0.205912 0.460982
vt 0.205913 0.522181
vt 0.139360 0.522181
vt 0.139360 0.460982
vt 0.205912 0.643693
vt 0.139360 0.643693
vt 0.205913 0.704962
vt 0.139360 0.704962
vt 0.235788 0.701262
vt 0.235788 0.640258
vt 0.302341 0.640258
vt 0.302341 0.701262
vt 0.235788 0.518681
vt 0.302341 0.518681
vt 0.235788 0.457481
vt 0.302341 0.457481
vt 0.072391 0.757890
vt 0.138942 0.757890
vt 0.129017 0.878290
vt 0.081911 0.878290
vt 0.175784 0.756905
vt 0.242336 0.756905
vt 0.232815 0.877305
vt 0.185709 0.877305
vt 0.215031 0.401280
vt 0.148479 0.401279
vt 0.158000 0.245808
vt 0.205106 0.245808
vt 0.148479 0.123863
vt 0.215031 0.123863
vt 0.309618 0.400636
vt 0.243065 0.400636
vt 0.252991 0.245164
vt 0.300096 0.245164
vt 0.243065 0.123219
vt 0.309618 0.123219
vt 0.413867 0.552664
vt 0.428719 0.551547
vt 0.428719 0.587466
vt 0.413867 0.590910
vt 0.391631 0.590910
vt 0.376779 0.587466
vt 0.376779 0.551547
vt 0.391631 0.552664
vt 0.413867 0.496166
vt 0.428719 0.497281
vt 0.376779 0.497281
vt 0.391631 0.496166
vt 0.413867 0.458027
vt 0.428719 0.461467
vt 0.376779 0.461467
vt 0.391631 0.458027
vt 0.395137 0.412547
vt 0.417373 0.412547
vt 0.432224 0.411431
vt 0.432224 0.447247
vt 0.417373 0.450686
vt 0.395137 0.450686
vt 0.380285 0.447247
vt 0.380285 0.411431
vt 0.395137 0.356050
vt 0.417373 0.356050
vt 0.432224 0.357167
vt 0.380285 0.357167
vt 0.395137 0.317911
vt 0.417373 0.317911
vt 0.432224 0.321351
vt 0.380285 0.321351
vt 0.045699 0.443341
vt 0.045699 0.323217
vt 0.112250 0.323217
vt 0.112250 0.443341
vt 0.140032 0.960323
vt 0.075206 0.960323
vt 0.075206 0.893771
vt 0.140032 0.893771
vt 0.240890 0.959651
vt 0.175793 0.959651
vt 0.175793 0.893100
vt 0.240890 0.893100
vt 0.873696 0.145890
vt 0.884386 0.101840
vt 0.943318 0.132235
vt 0.910321 0.164780
vt 0.805800 0.145890
vt 0.795092 0.101840
vt 0.971628 0.189027
vt 0.927578 0.199398
vt 0.769021 0.164894
vt 0.735987 0.132380
vt 0.859552 0.233731
vt 0.819923 0.233731
vt 0.971628 0.278433
vt 0.927578 0.268051
vt 0.751897 0.199361
vt 0.707847 0.189022
vt 0.839738 0.253546
vt 0.943318 0.335162
vt 0.910322 0.302630
vt 0.751897 0.268051
vt 0.707847 0.278433
vt 0.873673 0.321572
vt 0.805803 0.321571
vt 0.769153 0.302629
vt 0.884382 0.365622
vt 0.736157 0.335162
vt 0.795092 0.365622
vt 0.625276 0.295438
vt 0.654340 0.323600
vt 0.603101 0.350650
vt 0.593412 0.312260
vt 0.640084 0.265109
vt 0.678634 0.273841
vt 0.525119 0.351327
vt 0.534139 0.312776
vt 0.563259 0.253108
vt 0.580414 0.235652
vt 0.639563 0.205119
vt 0.677956 0.195755
vt 0.473417 0.325172
vt 0.501987 0.296510
vt 0.545803 0.235953
vt 0.624347 0.175147
vt 0.652948 0.146501
vt 0.448261 0.275844
vt 0.486654 0.266443
vt 0.532784 0.159345
vt 0.592082 0.158830
vt 0.601098 0.120278
vt 0.447583 0.197762
vt 0.486133 0.206485
vt 0.523113 0.120955
vt 0.471877 0.147948
vt 0.500941 0.176121
vn 0.017517 0.089832 -0.995803
vn 0.057454 0.282028 -0.957684
vn 0.063149 0.063342 -0.995992
vn 0.063149 0.063342 -0.995992
vn -0.192722 0.926183 0.324103
vn -0.436752 0.845273 0.307833
vn -0.340736 0.659447 0.670096
vn -0.148697 0.717571 0.680427
vn 0.192077 0.926317 0.324103
vn 0.148202 0.717708 0.680391
vn 0.436128 0.845590 0.307849
vn 0.340250 0.659697 0.670097
vn -0.436838 -0.845199 0.307915
vn -0.192465 -0.926241 0.324091
vn -0.148498 -0.717615 0.680424
vn -0.340813 -0.659409 0.670094
vn 0.192465 -0.926241 0.324090
vn 0.148497 -0.717616 0.680423
vn 0.436838 -0.845199 0.307913
vn 0.340814 -0.659410 0.670093
vn 0.851343 -0.424864 0.307742
vn 0.928281 -0.182168 0.324207
vn 0.719841 -0.140586 0.679753
vn 0.664164 -0.331451 0.670095
vn 0.928294 0.182090 0.324212
vn 0.719869 0.140530 0.679735
vn 0.851551 0.424492 0.307682
vn 0.664313 0.331155 0.670094
vn -0.928280 -0.182167 0.324209
vn -0.851344 -0.424864 0.307742
vn -0.664164 -0.331451 0.670094
vn -0.719843 -0.140584 0.679751
vn -0.928459 0.181230 0.324221
vn -0.720058 0.139871 0.679671
vn -0.852137 0.423347 0.307637
vn -0.664761 0.330257 0.670092
vn -0.063160 -0.063358 0.995990
vn -0.063160 -0.063358 0.995990
vn -0.017556 -0.089815 0.995804
vn -0.017556 -0.089815 0.995804
vn 0.017556 -0.089815 0.995804
vn 0.017556 -0.089815 0.995804
vn 0.063160 -0.063358 0.995990
vn 0.063160 -0.063358 0.995990
vn 0.090198 -0.016482 0.995788
vn 0.090198 -0.016482 0.995788
vn -0.063129 0.063351 0.995993
vn -0.063129 0.063351 0.995993
vn -0.090235 0.016389 0.995786
vn -0.090235 0.016389 0.995786
vn -0.017582 0.089810 0.995804
vn -0.017582 0.089810 0.995804
vn 0.017517 0.089832 0.995803
vn 0.017517 0.089832 0.995803
vn 0.063149 0.063342 0.995992
vn 0.063149 0.063342 0.995992
vn -0.063129 0.063351 -0.995993
vn -0.121646 0.185782 -0.975032
vn -0.057657 0.282000 -0.957680
vn -0.017582 0.089810 -0.995804
vn 0.090203 0.016476 -0.995787
vn 0.090203 0.016476 -0.995787
vn -0.063159 -0.063358 -0.995990
vn -0.063159 -0.063358 -0.995990
vn -0.090198 -0.016479 -0.995788
vn -0.090198 -0.016479 -0.995788
vn -0.017556 -0.089815 -0.995804
vn -0.017556 -0.089815 -0.995804
vn 0.017556 -0.089815 -0.995804
vn 0.017556 -0.089815 -0.995804
vn 0.063159 -0.063358 -0.995990
vn 0.063159 -0.063358 -0.995990
vn -0.090199 -0.016479 0.995788
vn -0.090199 -0.016479 0.995787
vn 0.090203 0.016476 0.995787
vn 0.090203 0.016476 0.995787
vn -0.090235 0.016389 -0.995786
vn -0.090235 0.016389 -0.995786
vn 0.090198 -0.016482 -0.995787
vn 0.090198 -0.016482 -0.995788
vn 0.000000 1.000000 -0.000000
vn 0.000000 1.000000 -0.000000
vn 0.000000 1.000000 -0.000000
vn 0.000000 1.000000 -0.000000
vn -0.894766 0.446534 0.000000
vn -0.894766 0.446534 0.000000
vn -0.894767 0.446534 0.000000
vn -0.894766 0.446534 0.000000
vn -1.000000 0.000000 0.000000
vn -1.000000 0.000000 0.000000
vn -1.000000 0.000000 0.000000
vn -1.000000 0.000000 0.000000
vn -0.894967 -0.446133 0.000000
vn -0.894967 -0.446133 0.000000
vn -0.894967 -0.446133 0.000000
vn -0.894967 -0.446133 0.000000
vn -0.458386 -0.888753 -0.000000
vn -0.458386 -0.888753 -0.000000
vn -0.458386 -0.888753 -0.000000
vn -0.458386 -0.888753 -0.000000
vn 0.459043 -0.888414 -0.000000
vn 0.459043 -0.888414 -0.000000
vn 0.459043 -0.888414 -0.000000
vn 0.459043 -0.888414 -0.000000
vn 0.895568 -0.444925 0.000000
vn 0.895568 -0.444925 0.000000
vn 0.895568 -0.444925 0.000000
vn 0.895568 -0.444925 0.000000
vn 1.000000 0.000000 0.000001
vn 1.000000 0.000000 0.000001
vn 1.000000 0.000000 0.000001
vn 1.000000 0.000000 0.000001
vn 0.894767 0.446535 0.000000
vn 0.894766 0.446534 0.000000
vn 0.894766 0.446534 0.000000
vn 0.894767 0.446534 0.000000
vn 0.000000 0.000000 1.000000
vn 0.000000 0.000000 1.000000
vn 0.000000 0.000000 1.000000
vn 0.000000 0.000000 -1.000000
vn 0.000000 0.000000 -1.000000
vn 0.000000 0.000000 -1.000000
vn -0.039370 0.057357 0.997577
vn -0.039370 0.057357 0.997577
vn -0.039370 0.057357 0.997577
vn -0.039370 0.057357 0.997577
vn 0.805043 0.593217 -0.000001
vn 0.805042 0.593217 -0.000001
vn 0.805043 0.593217 -0.000001
vn 0.805043 0.593217 -0.000001
vn -0.037774 0.055032 -0.997770
vn -0.037774 0.055032 -0.997770
vn -0.037774 0.055032 -0.997770
vn -0.037774 0.055032 -0.997770
vn -0.894838 -0.446392 0.000000
vn -0.894838 -0.446392 0.000000
vn -0.894838 -0.446392 0.000000
vn -0.894838 -0.446392 0.000000
vn 0.039370 0.057357 0.997577
vn 0.039370 0.057357 0.997577
vn 0.039370 0.057357 0.997577
vn 0.039370 0.057357 0.997577
vn 0.894838 -0.446391 0.000000
vn 0.894838 -0.446391 0.000000
vn 0.894838 -0.446391 0.000000
vn 0.894838 -0.446391 0.000000
vn 0.037774 0.055032 -0.997770
vn 0.037774 0.055032 -0.997770
vn 0.037774 0.055032 -0.997770
vn 0.037774 0.055032 -0.997770
vn -0.805043 0.593217 0.000000
vn -0.805043 0.593217 0.000000
vn -0.805043 0.593217 0.000000
vn -0.805043 0.593217 0.000000
vn 0.000000 -0.063711 0.997968
vn 0.000000 -0.063711 0.997968
vn 0.000000 -0.063711 0.997968
vn 0.000000 -0.063711 0.997968
vn -0.987321 -0.158737 0.000000
vn -0.987321 -0.158737 0.000000
vn -0.987321 -0.158737 0.000000
vn -0.987321 -0.158737 0.000000
vn 0.000000 -0.061126 -0.998130
vn 0.000000 -0.061126 -0.998130
vn 0.000000 -0.061126 -0.998130
vn 0.000000 -0.061126 -0.998130
vn 0.987285 -0.158958 -0.000001
vn 0.987285 -0.158958 -0.000001
vn 0.987285 -0.158958 -0.000001
vn 0.987285 -0.158958 -0.000001
vn -0.192723 0.926184 -0.324101
vn -0.436753 0.845274 -0.307830
vn -0.852136 0.423347 -0.307637
vn -0.664759 0.330257 -0.670094
vn -0.720056 0.139871 -0.679673
vn -0.928459 0.181230 -0.324221
vn -0.719843 -0.140583 -0.679752
vn -0.928280 -0.182167 -0.324208
vn -0.664164 -0.331451 -0.670094
vn -0.851344 -0.424863 -0.307742
vn -0.192465 -0.926241 -0.324090
vn -0.436838 -0.845199 -0.307914
vn -0.340813 -0.659409 -0.670094
vn -0.148498 -0.717615 -0.680424
vn 0.192466 -0.926241 -0.324090
vn 0.148497 -0.717615 -0.680424
vn 0.436838 -0.845199 -0.307913
vn 0.340813 -0.659410 -0.670093
vn 0.928281 -0.182168 -0.324206
vn 0.851343 -0.424864 -0.307743
vn 0.664164 -0.331451 -0.670094
vn 0.719842 -0.140586 -0.679753
vn 0.928294 0.182090 -0.324212
vn 0.719869 0.140530 -0.679736
vn 0.851551 0.424492 -0.307682
vn 0.664312 0.331155 -0.670094
vn 0.436127 0.845589 -0.307852
vn 0.340250 0.659697 -0.670097
vn 0.192077 0.926317 -0.324104
s 1
g polySurface24 polySurface16
usemtl lambert14SG
f 46/113/1 45/114/2 48/115/3 47/116/4
f 2/76/5 1/73/6 34/74/7 36/75/8
f 3/80/9 2/76/5 36/75/8 38/79/10
f 4/84/11 3/80/9 38/79/10 40/83/12
s 3
f 13/89/13 14/86/14 28/87/15 26/88/16
f 14/86/14 15/94/17 30/95/18 28/87/15
f 15/94/17 16/98/19 32/99/20 30/95/18
s 4
f 16/5/21 18/2/22 60/3/23 32/4/24
f 18/2/22 20/10/25 64/11/26 60/3/23
f 20/10/25 4/14/27 40/15/28 64/11/26
s 5
f 22/24/29 13/21/30 26/22/31 58/23/32
f 24/28/33 22/24/29 58/23/32 62/27/34
f 1/32/35 24/28/33 62/27/34 34/31/36
s 6
f 25/140/37 26/141/38 28/142/39 27/143/40
f 27/143/40 28/142/39 30/146/41 29/147/42
f 29/147/42 30/146/41 32/152/43 31/153/44
f 31/153/44 32/152/43 60/157/45 59/158/46
f 33/155/47 34/156/48 62/151/49 61/150/50
f 34/156/48 33/155/47 35/160/51 36/161/52
f 36/161/52 35/160/51 37/159/53 38/164/54
f 38/164/54 37/159/53 39/166/55 40/165/56
s 1
f 42/121/57 41/122/58 43/118/59 44/117/60
f 44/117/60 43/118/59 45/114/2 46/113/1
f 47/116/4 48/115/3 68/119/61 67/120/62
f 49/136/63 50/138/64 70/133/65 69/132/66
f 50/138/64 49/136/63 51/135/67 52/139/68
f 52/139/68 51/135/67 53/134/69 54/137/70
f 54/137/70 53/134/69 55/131/71 56/130/72
s 6
f 26/141/38 25/140/37 57/144/73 58/145/74
f 59/158/46 60/157/45 64/162/75 63/163/76
f 58/145/74 57/144/73 61/150/50 62/151/49
f 40/165/56 39/166/55 63/163/76 64/162/75
s 1
f 41/122/58 42/121/57 65/127/77 66/128/78
f 67/120/62 68/119/61 72/125/79 71/126/80
f 66/128/78 65/127/77 69/132/66 70/133/65
f 56/130/72 55/131/71 71/126/80 72/125/79
s off
f 27/101/81 29/102/82 53/103/83 51/104/84
f 31/33/85 59/34/86 71/35/87 55/36/88
f 59/34/89 63/37/90 67/38/91 71/35/92
f 63/37/93 39/39/94 47/40/95 67/38/96
f 39/105/97 37/106/98 46/107/99 47/108/100
f 35/109/101 33/110/102 42/111/103 44/112/104
f 33/41/105 61/42/106 65/43/107 42/44/108
f 61/42/109 57/45/110 69/46/111 65/43/112
f 57/45/113 25/47/114 49/48/115 69/46/116
f 73/148/117 74/154/118 75/149/119
f 76/124/120 78/123/121 77/129/122
f 29/147/123 31/153/124 74/154/125 73/148/126
f 31/67/127 55/68/128 78/66/129 74/65/130
f 55/131/131 53/134/132 77/129/133 78/123/134
f 53/49/135 29/50/136 73/51/137 77/52/138
f 25/140/139 27/143/140 73/148/141 75/149/142
f 27/53/143 51/54/144 77/55/145 73/56/146
f 51/135/147 49/136/148 76/124/149 77/129/150
f 49/61/151 25/62/152 75/60/153 76/59/154
f 37/159/155 35/160/156 75/149/157 74/154/158
f 35/57/159 44/58/160 76/59/161 75/60/162
f 44/117/163 46/113/164 78/123/165 76/124/166
f 46/63/167 37/64/168 74/65/169 78/66/170
s 1
f 6/69/171 43/70/59 41/71/58 5/72/172
s 5
f 5/29/173 41/30/174 66/26/175 23/25/176
f 23/25/176 66/26/175 70/18/177 21/17/178
f 21/17/178 70/18/177 50/19/179 9/20/180
s 3
f 10/85/181 9/90/182 50/91/183 52/92/184
f 11/93/185 10/85/181 52/92/184 54/96/186
f 12/97/187 11/93/185 54/96/186 56/100/188
s 4
f 17/1/189 12/6/190 56/7/191 72/8/192
f 19/9/193 17/1/189 72/8/192 68/12/194
f 8/13/195 19/9/193 68/12/194 48/16/196
s 1
f 8/81/197 48/82/198 45/78/2 7/77/199
f 7/77/199 45/78/2 43/70/59 6/69/171
f 7/77/199 6/69/171 2/76/5 3/80/9
f 6/69/171 5/72/172 1/73/6 2/76/5
s 5
f 5/29/173 23/25/176 24/28/33 1/32/35
f 23/25/176 21/17/178 22/24/29 24/28/33
f 21/17/178 9/20/180 13/21/30 22/24/29
s 3
f 10/85/181 14/86/14 13/89/13 9/90/182
f 11/93/185 15/94/17 14/86/14 10/85/181
f 12/97/187 16/98/19 15/94/17 11/93/185
s 4
f 17/1/189 18/2/22 16/5/21 12/6/190
f 19/9/193 20/10/25 18/2/22 17/1/189
f 8/13/195 4/14/27 20/10/25 19/9/193
s 1
f 8/81/197 7/77/199 3/80/9 4/84/11
